<svg xmlns="http://www.w3.org/2000/svg" width="400" height="auto" viewBox="0 0 335.449 104.199"><path fill-rule="evenodd" stroke="#ffe000" stroke-linecap="round" stroke-width=".25mm" d="M 59.159 87.414 A 12.712 12.712 0 0 0 59.082 88.867 A 12.261 12.261 0 0 0 59.093 89.387 Q 59.14 90.494 59.39 91.435 A 6.485 6.485 0 0 0 60.693 93.994 A 9.76 9.76 0 0 0 62.094 95.348 A 11.105 11.105 0 0 0 64.844 96.924 Q 67.383 97.949 70.41 98.291 A 57.518 57.518 0 0 0 72.274 98.471 A 48.892 48.892 0 0 0 76.172 98.633 A 41.276 41.276 0 0 0 77.02 98.598 Q 79.761 98.459 82.153 97.961 A 23.728 23.728 0 0 0 87.207 96.338 Q 91.797 94.238 94.873 90.771 A 25.441 25.441 0 0 0 99.658 82.764 A 42.027 42.027 0 0 0 100.265 81.038 A 46.631 46.631 0 0 0 102.1 73.047 A 70.615 70.615 0 0 0 102.231 72.073 A 77.291 77.291 0 0 0 102.832 62.305 Q 102.832 56.738 102.441 51.221 A 271.625 271.625 0 0 0 102.341 49.847 A 244.944 244.944 0 0 0 101.465 40.576 A 429.698 429.698 0 0 1 100.928 35.632 A 339.787 339.787 0 0 1 100.488 31.055 A 15.689 15.689 0 0 0 100.447 30.922 Q 100.135 29.928 99.726 29.091 A 9.383 9.383 0 0 0 98.633 27.344 A 9.144 9.144 0 0 0 95.85 25 A 11.006 11.006 0 0 0 95.799 24.973 A 11.56 11.56 0 0 0 92.334 23.779 A 20.747 20.747 0 0 0 92.095 23.738 A 22.472 22.472 0 0 0 88.379 23.438 Q 85.156 23.438 82.813 24.805 A 11.987 11.987 0 0 0 78.906 28.467 A 18.426 18.426 0 0 0 78.121 29.727 A 20.77 20.77 0 0 0 76.416 33.643 A 45.348 45.348 0 0 0 74.951 39.502 Q 74.414 42.48 74.268 45.41 A 145.752 145.752 0 0 0 74.258 45.598 Q 74.121 48.415 74.121 50.684 A 241.825 241.825 0 0 1 74.109 53.149 A 201.294 201.294 0 0 1 74.072 55.469 A 18.587 18.587 0 0 0 74.068 55.873 Q 74.068 56.871 74.179 57.759 A 11.043 11.043 0 0 0 74.512 59.424 A 4.738 4.738 0 0 0 76.416 62.109 A 3.785 3.785 0 0 0 76.564 62.206 Q 77.558 62.825 79.183 63.009 A 13.246 13.246 0 0 0 80.664 63.086 A 12.976 12.976 0 0 0 81.998 63.019 A 10.603 10.603 0 0 0 85.596 62.012 A 21.01 21.01 0 0 0 89.746 59.326 Q 91.699 57.715 93.408 55.664 A 160.781 160.781 0 0 1 93.835 55.154 A 144.937 144.937 0 0 1 96.777 51.758 A 43.055 43.055 0 0 1 97.696 55.14 A 52.939 52.939 0 0 1 98.633 60.547 A 49.528 49.528 0 0 1 99.003 66.572 A 48.562 48.562 0 0 1 98.877 70.068 A 39.482 39.482 0 0 1 97.119 79.248 A 29.464 29.464 0 0 1 96.598 80.745 A 25.365 25.365 0 0 1 93.115 87.109 Q 90.527 90.527 86.572 92.676 A 17.833 17.833 0 0 1 81.644 94.444 A 24.309 24.309 0 0 1 77.148 94.922 A 29.697 29.697 0 0 1 77.035 94.922 A 31.74 31.74 0 0 1 69.824 94.043 A 21.308 21.308 0 0 1 62.988 91.113 A 1.402 1.402 0 0 1 62.934 91.128 Q 62.303 91.281 62.256 90.625 A 2.252 2.252 0 0 1 62.254 90.604 Q 62.224 90.112 62.391 89.374 A 10.234 10.234 0 0 1 62.549 88.77 A 86.785 86.785 0 0 1 62.915 87.549 A 110.705 110.705 0 0 1 63.33 86.23 A 28.333 28.333 0 0 0 64.063 83.496 Q 60.84 83.496 59.961 84.863 A 3.742 3.742 0 0 0 59.93 84.913 Q 59.338 85.865 59.159 87.414 Z M 187.814 95.793 A 10.953 10.953 0 0 0 187.793 96.484 A 7.425 7.425 0 0 0 187.849 97.415 A 4.925 4.925 0 0 0 189.99 101.025 A 13.516 13.516 0 0 0 192.6 102.413 A 18.377 18.377 0 0 0 195.361 103.271 A 33.503 33.503 0 0 0 201.953 104.102 Q 204.089 104.163 205.806 104.185 A 143.856 143.856 0 0 0 207.715 104.199 Q 212.891 104.199 216.602 102.148 A 19.352 19.352 0 0 0 222.803 96.777 Q 225.293 93.457 226.465 89.111 A 34.168 34.168 0 0 0 227.637 80.176 A 105.608 105.608 0 0 0 226.758 66.699 Q 225.879 59.863 224.414 53.125 A 375.448 375.448 0 0 0 221.289 39.893 A 984.675 984.675 0 0 0 217.969 27.246 Q 217.383 26.66 216.455 26.367 A 2.712 2.712 0 0 0 216.192 26.298 Q 215.962 26.25 215.744 26.25 A 1.812 1.812 0 0 0 214.795 26.514 A 1.38 1.38 0 0 0 214.616 26.642 Q 214.2 26.992 213.95 27.731 A 5.536 5.536 0 0 0 213.77 28.418 Q 213.541 29.562 213.908 31.601 A 24.327 24.327 0 0 0 214.16 32.813 A 498.516 498.516 0 0 0 215.918 39.099 A 431.833 431.833 0 0 0 217.676 45.068 Q 219.434 50.879 220.801 56.494 Q 222.168 62.109 222.998 67.725 A 73.547 73.547 0 0 1 223.193 69.135 A 80.704 80.704 0 0 1 223.828 79.395 Q 223.828 83.594 222.803 87.451 A 21.968 21.968 0 0 1 222.338 88.978 A 18.453 18.453 0 0 1 219.58 94.189 A 15.981 15.981 0 0 1 214.014 98.779 Q 212.013 99.794 209.514 100.206 A 22.467 22.467 0 0 1 205.859 100.488 A 25.265 25.265 0 0 1 205.777 100.488 Q 204.696 100.485 202.393 100.391 Q 200 100.293 197.656 99.854 Q 195.313 99.414 193.506 98.633 A 5.294 5.294 0 0 1 192.851 98.298 Q 192.477 98.07 192.224 97.809 A 1.72 1.72 0 0 1 191.699 96.582 A 21.651 21.651 0 0 0 191.285 96.046 Q 190.694 95.308 190.216 94.866 A 4.234 4.234 0 0 0 189.746 94.482 Q 188.965 93.945 188.525 94.043 Q 188.086 94.141 187.939 94.824 A 5.426 5.426 0 0 0 187.879 95.161 Q 187.835 95.455 187.814 95.793 Z M 16.309 11.426 L 0 12.695 L 1.563 7.617 A 0.217 0.217 0 0 1 1.643 7.58 Q 1.912 7.495 3.007 7.38 A 44.993 44.993 0 0 1 3.076 7.373 A 3057.356 3057.356 0 0 0 3.842 7.294 Q 4.904 7.184 6.352 7.033 A 10188.45 10188.45 0 0 0 6.836 6.982 A 1089.814 1089.814 0 0 1 9.244 6.734 Q 10.514 6.605 11.921 6.464 A 1716.834 1716.834 0 0 1 12.109 6.445 A 1279.856 1279.856 0 0 1 18.115 5.859 A 1966.7 1966.7 0 0 0 24.17 5.273 Q 27.148 4.98 29.688 4.688 L 30.566 4.688 L 32.52 4.688 L 34.57 4.688 L 35.84 4.688 A 9.822 9.822 0 0 1 36.92 4.742 Q 38.023 4.865 38.67 5.261 A 2.103 2.103 0 0 1 39.062 5.566 A 2.12 2.12 0 0 1 39.497 6.246 Q 39.939 7.287 39.941 9.354 A 19.585 19.585 0 0 1 39.941 9.375 L 22.168 11.426 Q 21.989 17.065 22.302 23.197 A 163.471 163.471 0 0 0 22.363 24.316 A 505.979 505.979 0 0 0 23.34 37.939 A 2550.555 2550.555 0 0 1 24.463 51.563 A 168.315 168.315 0 0 1 24.966 61.328 A 146.084 146.084 0 0 1 25 64.453 A 2.243 2.243 0 0 1 24.96 64.894 Q 24.91 65.143 24.798 65.33 A 1.031 1.031 0 0 1 24.463 65.674 A 2.864 2.864 0 0 1 23.674 66.017 A 3.661 3.661 0 0 1 23.193 66.113 A 4.488 4.488 0 0 1 22.6 66.152 Q 22.163 66.152 21.709 66.07 A 5.443 5.443 0 0 1 21.68 66.064 Q 20.898 65.918 20.313 65.723 Q 20.02 64.453 19.727 61.328 A 236.424 236.424 0 0 1 19.507 58.833 Q 19.415 57.731 19.324 56.524 A 419.49 419.49 0 0 1 19.141 54.004 A 838.778 838.778 0 0 1 18.848 49.634 A 1050.449 1050.449 0 0 1 18.555 44.922 L 17.969 35.156 A 1640.404 1640.404 0 0 0 17.529 28.079 A 1422.909 1422.909 0 0 0 17.383 25.83 Q 17.09 21.387 16.895 18.018 A 492.576 492.576 0 0 0 16.8 16.428 Q 16.663 14.185 16.553 12.793 A 42.044 42.044 0 0 0 16.524 12.449 Q 16.397 10.986 16.309 11.426 Z M 301.074 25.488 L 314.844 24.512 A 676.768 676.768 0 0 0 314.978 22.925 Q 315.161 20.728 315.234 19.629 A 31.827 31.827 0 0 0 315.281 18.756 Q 315.31 18.01 315.293 17.402 A 13.625 13.625 0 0 0 315.283 17.139 A 181.186 181.186 0 0 1 315.24 16.185 Q 315.22 15.699 315.199 15.16 A 306.23 306.23 0 0 1 315.186 14.795 A 49.423 49.423 0 0 1 315.164 14.041 Q 315.138 12.832 315.137 10.854 A 319.373 319.373 0 0 1 315.137 10.645 A 32.046 32.046 0 0 1 316.228 10.495 Q 317.667 10.324 318.612 10.37 A 6.262 6.262 0 0 1 318.994 10.4 A 5.246 5.246 0 0 1 319.636 10.509 Q 320.442 10.703 320.801 11.133 Q 321.288 11.717 321.241 12.835 A 4.841 4.841 0 0 1 321.24 12.842 A 18.989 18.989 0 0 1 321.178 13.739 Q 321.14 14.157 321.082 14.628 A 41.564 41.564 0 0 1 320.947 15.625 Q 320.76 16.896 320.631 18.568 A 71.002 71.002 0 0 0 320.557 19.629 Q 320.41 21.973 320.703 24.902 L 332.422 24.512 L 332.422 29.297 A 18.485 18.485 0 0 0 331.976 29.303 Q 331.263 29.32 330.103 29.387 A 116.726 116.726 0 0 0 329.98 29.395 A 429.673 429.673 0 0 1 328.259 29.492 A 527.421 527.421 0 0 1 326.416 29.59 A 430.815 430.815 0 0 0 324.585 29.688 A 335.704 335.704 0 0 0 322.9 29.785 A 17.027 17.027 0 0 0 322.06 29.856 Q 321.301 29.94 320.795 30.083 A 3.62 3.62 0 0 0 320.508 30.176 A 2710.87 2710.87 0 0 0 319.702 33.813 A 3291.437 3291.437 0 0 0 318.848 37.695 Q 317.969 41.699 317.676 45.605 A 38.372 38.372 0 0 0 317.566 48.286 Q 317.557 50.188 317.752 51.95 A 27.971 27.971 0 0 0 317.871 52.881 A 11.993 11.993 0 0 0 318.646 55.771 A 9.449 9.449 0 0 0 320.313 58.447 Q 322.201 60.571 325.64 61.418 A 15.849 15.849 0 0 0 325.879 61.475 A 12.083 12.083 0 0 0 327.52 61.728 Q 330.758 62.014 335.449 60.938 A 4.564 4.564 0 0 1 335.105 62.193 A 3.741 3.741 0 0 1 334.326 63.33 A 6.992 6.992 0 0 1 332.178 64.795 Q 330.957 65.332 329.59 65.576 Q 328.367 65.795 327.378 65.818 A 9.869 9.869 0 0 1 327.148 65.82 Q 322.168 65.82 319.238 64.014 A 11.586 11.586 0 0 1 314.844 59.277 A 17.916 17.916 0 0 1 313.384 55.075 A 22.534 22.534 0 0 1 312.988 52.588 A 53.637 53.637 0 0 1 312.704 47.042 A 56.564 56.564 0 0 1 312.744 44.922 Q 312.891 41.016 313.281 37.207 A 79.599 79.599 0 0 0 313.574 33.569 A 58.708 58.708 0 0 0 313.672 30.273 A 4.225 4.225 0 0 0 313.043 30.121 Q 312.346 30.003 311.387 30.026 A 13.959 13.959 0 0 0 311.279 30.029 A 56.673 56.673 0 0 0 309.311 30.128 A 68.238 68.238 0 0 0 308.057 30.225 A 87.546 87.546 0 0 0 305.576 30.472 A 76.94 76.94 0 0 0 304.785 30.566 Q 303.223 30.762 302.148 30.762 Q 301.71 30.762 301.547 29.622 A 7.164 7.164 0 0 1 301.514 29.346 A 130.683 130.683 0 0 0 301.431 28.574 Q 301.337 27.711 301.204 26.576 A 446.224 446.224 0 0 0 301.074 25.488 Z M 290.039 41.309 L 287.598 41.309 Q 287.503 40.74 287.271 38.657 A 290.753 290.753 0 0 1 287.256 38.525 A 33.275 33.275 0 0 0 286.697 35.147 A 38.081 38.081 0 0 0 286.426 33.984 A 18.811 18.811 0 0 0 285.575 31.373 A 15.48 15.48 0 0 0 284.814 29.785 A 4.305 4.305 0 0 0 284.103 28.817 A 2.948 2.948 0 0 0 281.934 27.93 A 7.013 7.013 0 0 0 278.18 29.04 A 9.771 9.771 0 0 0 276.807 30.078 Q 274.414 32.227 272.656 35.254 Q 270.898 38.281 269.824 41.504 Q 269.125 43.601 268.881 45.244 A 11.147 11.147 0 0 0 268.75 46.875 A 29.478 29.478 0 0 0 268.992 49.593 A 38.923 38.923 0 0 0 269.434 52.197 A 18.544 18.544 0 0 0 270.637 56.022 A 16.389 16.389 0 0 0 271.338 57.422 Q 272.656 59.766 274.805 61.23 A 6.047 6.047 0 0 0 277.856 62.259 Q 278.639 62.313 279.501 62.201 A 10.388 10.388 0 0 0 280.078 62.109 A 10.736 10.736 0 0 0 284.57 61.133 A 83.622 83.622 0 0 0 288.77 59.082 Q 290.82 58.008 292.92 57.031 A 10.41 10.41 0 0 1 297.363 56.055 A 6.165 6.165 0 0 1 295.522 60.483 A 7.882 7.882 0 0 1 295.508 60.498 A 13.69 13.69 0 0 1 292.102 63.026 A 16.274 16.274 0 0 1 290.967 63.574 Q 288.281 64.746 285.303 65.332 A 38.603 38.603 0 0 1 283.282 65.677 Q 281.587 65.918 280.273 65.918 A 14.065 14.065 0 0 1 275.778 65.212 A 13.023 13.023 0 0 1 274.17 64.551 A 15.708 15.708 0 0 1 269.336 60.889 A 16.304 16.304 0 0 1 266.306 55.899 A 18.605 18.605 0 0 1 266.162 55.518 A 18.787 18.787 0 0 1 265.039 49.023 A 26.331 26.331 0 0 1 265.331 45.223 Q 265.624 43.217 266.211 41.016 A 31.773 31.773 0 0 1 269.629 32.861 Q 271.875 29.102 275.195 26.563 A 12.333 12.333 0 0 1 282.842 24.024 A 15.185 15.185 0 0 1 282.91 24.023 A 10.147 10.147 0 0 1 283.647 23.954 Q 285.388 23.855 286.523 24.463 A 4.668 4.668 0 0 1 288.346 26.234 A 5.986 5.986 0 0 1 288.623 26.758 A 10.686 10.686 0 0 1 289.341 28.854 A 13.621 13.621 0 0 1 289.6 30.322 Q 289.844 32.324 289.893 34.424 Q 289.935 36.261 289.903 37.874 A 63.793 63.793 0 0 1 289.893 38.33 A 26.553 26.553 0 0 0 289.883 38.858 Q 289.875 39.992 289.974 40.847 A 9.372 9.372 0 0 0 290.039 41.309 Z M 39.33 54.304 A 15.873 15.873 0 0 0 39.062 57.324 Q 39.063 59.277 39.99 60.889 A 8.909 8.909 0 0 0 42.432 63.623 Q 43.945 64.746 45.752 65.332 A 12.98 12.98 0 0 0 46.259 65.485 A 11.309 11.309 0 0 0 49.316 65.918 A 38.876 38.876 0 0 0 49.383 65.918 Q 50.387 65.916 51.752 65.863 A 113.98 113.98 0 0 0 52.734 65.82 A 99.058 99.058 0 0 0 53.772 65.765 A 114.11 114.11 0 0 0 57.031 65.527 Q 59.277 65.332 61.475 64.893 Q 63.672 64.453 65.43 63.818 A 12.258 12.258 0 0 0 66.025 63.586 Q 67.368 63.021 68.213 62.256 Q 69.084 61.467 69.074 60.432 A 2.626 2.626 0 0 0 69.043 60.059 A 432.472 432.472 0 0 0 68.775 54.368 Q 68.629 51.668 68.459 49.259 A 210.722 210.722 0 0 0 68.018 43.896 A 178.626 178.626 0 0 0 67.591 39.909 Q 67.117 35.928 66.553 33.008 A 57.367 57.367 0 0 0 66.476 32.619 Q 65.935 29.917 65.273 28 A 17.117 17.117 0 0 0 64.6 26.318 Q 63.898 24.823 63.12 23.804 A 7.453 7.453 0 0 0 62.158 22.754 A 8.065 8.065 0 0 0 61.465 22.202 A 6.484 6.484 0 0 0 59.326 21.191 A 33.89 33.89 0 0 0 58.157 20.912 A 41.282 41.282 0 0 0 56.055 20.508 A 23.67 23.67 0 0 0 55.199 20.524 Q 53.748 20.576 51.953 20.801 Q 49.609 21.094 47.461 21.973 A 10.306 10.306 0 0 0 43.799 24.463 A 5.385 5.385 0 0 0 42.575 26.538 A 6.481 6.481 0 0 0 42.285 28.516 A 12.705 12.705 0 0 0 43.106 28.489 A 10.807 10.807 0 0 0 46.094 27.881 Q 47.852 27.246 49.609 26.465 Q 51.367 25.684 53.125 25 A 9.686 9.686 0 0 1 54.195 24.654 A 10.824 10.824 0 0 1 56.934 24.316 Q 59.863 25.684 61.182 28.32 A 18.508 18.508 0 0 1 62.939 33.887 A 42.161 42.161 0 0 1 63.005 34.344 A 38.207 38.207 0 0 1 63.379 39.6 A 149.546 149.546 0 0 0 63.38 40.175 Q 63.389 42.568 63.477 44.141 L 63.477 45.459 L 63.477 47.461 A 42.593 42.593 0 0 1 63.464 48.499 A 34.26 34.26 0 0 1 63.428 49.463 A 92.18 92.18 0 0 0 63.411 49.781 Q 63.388 50.267 63.381 50.525 A 6.596 6.596 0 0 0 63.379 50.684 A 22.351 22.351 0 0 0 62.915 50.285 Q 61.506 49.109 60.205 48.438 A 15.659 15.659 0 0 0 60.11 48.389 A 14.173 14.173 0 0 0 57.129 47.266 A 16.309 16.309 0 0 0 56.884 47.206 A 17.726 17.726 0 0 0 53.857 46.777 A 56.824 56.824 0 0 0 52.541 46.718 A 69.327 69.327 0 0 0 50.195 46.68 Q 48.25 46.68 46.595 47.067 A 10.726 10.726 0 0 0 42.139 49.219 A 7.434 7.434 0 0 0 40.385 51.326 Q 39.657 52.618 39.33 54.304 Z M 115.039 65.723 L 113.086 63.867 A 1.072 1.072 0 0 0 113.081 63.803 Q 113.054 63.493 112.863 61.764 A 1077.966 1077.966 0 0 0 112.793 61.133 A 248.776 248.776 0 0 0 112.631 59.717 Q 112.366 57.446 111.963 54.297 A 941.288 941.288 0 0 1 111.438 50.113 Q 111.128 47.603 110.791 44.775 A 1071.565 1071.565 0 0 1 109.57 34.082 A 8695.739 8695.739 0 0 1 108.719 26.245 A 7751.184 7751.184 0 0 1 108.447 23.73 A 45035.14 45035.14 0 0 0 108.065 20.187 Q 107.914 18.791 107.778 17.529 A 23917.769 23917.769 0 0 0 107.52 15.137 L 107.52 14.648 L 107.52 13.77 L 107.52 12.793 L 107.52 12.012 Q 107.52 8.887 109.912 6.592 A 17.76 17.76 0 0 1 114.075 3.645 A 21.411 21.411 0 0 1 115.723 2.881 A 37.597 37.597 0 0 1 122.852 0.732 Q 125.675 0.175 127.876 0.042 A 21.923 21.923 0 0 1 129.199 0 A 16.841 16.841 0 0 1 133.976 0.709 A 19.146 19.146 0 0 1 134.521 0.879 A 15.785 15.785 0 0 1 138.124 2.565 A 14.213 14.213 0 0 1 139.258 3.369 A 10.733 10.733 0 0 1 142.432 7.471 Q 143.555 9.961 143.164 13.184 A 17.96 17.96 0 0 1 141.285 19.721 A 17.034 17.034 0 0 1 139.893 21.973 Q 137.109 25.781 133.057 28.369 Q 129.004 30.957 124.268 32.275 Q 119.531 33.594 115.137 33.594 Q 115.137 37.207 115.43 40.771 A 585.547 585.547 0 0 0 116.064 47.949 A 585.547 585.547 0 0 1 116.699 55.127 Q 116.992 58.691 116.992 62.305 A 10.43 10.43 0 0 1 116.916 63.59 A 8.657 8.657 0 0 1 116.797 64.307 A 1.369 1.369 0 0 1 116.364 65.034 Q 115.918 65.448 115.039 65.723 Z M 259.277 35.938 L 238.672 39.746 A 0.56 0.56 0 0 0 238.423 39.892 Q 238.184 40.119 237.988 40.674 A 8.24 8.24 0 0 0 237.782 41.358 Q 237.622 41.98 237.5 42.773 A 44.166 44.166 0 0 0 237.317 44.104 A 56.882 56.882 0 0 0 237.158 45.557 Q 237.012 47.07 236.914 48.486 A 44.783 44.783 0 0 0 236.844 49.749 Q 236.816 50.429 236.816 51.025 L 236.816 52.734 A 9.259 9.259 0 0 0 237.002 54.641 Q 237.311 56.11 238.135 57.178 Q 239.453 58.887 241.504 59.766 A 14.997 14.997 0 0 0 244.203 60.619 A 19.044 19.044 0 0 0 246.143 60.938 Q 248.73 61.23 251.27 61.23 A 59.174 59.174 0 0 0 254.329 61.154 A 49.483 49.483 0 0 0 256.055 61.035 Q 257.564 60.904 258.72 60.861 A 28.233 28.233 0 0 1 259.766 60.84 A 1.261 1.261 0 0 1 259.713 61.187 Q 259.67 61.339 259.59 61.503 A 2.804 2.804 0 0 1 259.473 61.719 A 6.185 6.185 0 0 1 258.789 62.646 Q 258.398 63.086 258.008 63.428 A 47.307 47.307 0 0 0 257.872 63.547 Q 257.609 63.779 257.526 63.861 A 1.265 1.265 0 0 0 257.52 63.867 A 31.545 31.545 0 0 1 257.077 63.974 Q 256.344 64.146 255.156 64.398 A 182.945 182.945 0 0 1 255.127 64.404 A 68.701 68.701 0 0 1 252.819 64.851 A 80.381 80.381 0 0 1 251.709 65.039 A 104.998 104.998 0 0 1 249.963 65.308 A 83.81 83.81 0 0 1 248.34 65.527 A 54.112 54.112 0 0 1 247.661 65.608 Q 246.714 65.714 246.259 65.722 A 4.025 4.025 0 0 1 246.191 65.723 Q 243.164 66.309 240.918 65.625 Q 238.672 64.941 237.109 63.281 A 12.261 12.261 0 0 1 235.238 60.652 A 15.055 15.055 0 0 1 234.57 59.229 A 24.938 24.938 0 0 1 233.237 54.79 A 28.055 28.055 0 0 1 233.105 54.102 A 35.538 35.538 0 0 1 232.569 48.46 A 38.221 38.221 0 0 1 232.568 48.438 A 49.99 49.99 0 0 1 232.561 47.604 Q 232.561 45.127 232.811 42.792 A 40.07 40.07 0 0 1 232.812 42.773 Q 232.813 39.844 234.082 36.279 A 26.895 26.895 0 0 1 237.549 29.639 Q 239.746 26.563 242.529 24.463 A 11.076 11.076 0 0 1 245.057 23.009 A 8.716 8.716 0 0 1 248.34 22.363 A 8.301 8.301 0 0 1 251.586 23.036 A 9.356 9.356 0 0 1 251.611 23.047 A 14.978 14.978 0 0 1 254.309 24.546 A 16.937 16.937 0 0 1 254.736 24.854 A 16.866 16.866 0 0 1 257.471 27.393 Q 258.691 28.809 259.375 30.371 A 9.216 9.216 0 0 1 259.922 32.004 A 7.324 7.324 0 0 1 260.107 33.398 A 4.596 4.596 0 0 1 260.11 33.552 A 3.654 3.654 0 0 1 259.277 35.938 Z M 150.586 63.867 L 146.875 63.867 L 146.729 62.256 A 70.738 70.738 0 0 1 146.655 61.386 Q 146.561 60.182 146.466 58.553 A 230.449 230.449 0 0 1 146.436 58.008 A 252.432 252.432 0 0 0 146.265 55.225 A 341.554 341.554 0 0 0 146.045 52.148 Q 145.801 48.926 145.605 45.605 A 590.772 590.772 0 0 1 145.34 40.762 A 525.843 525.843 0 0 1 145.264 39.209 A 183.959 183.959 0 0 0 145.147 37.019 Q 145.095 36.155 145.039 35.372 A 99.53 99.53 0 0 0 144.922 33.887 A 6.316 6.316 0 0 0 144.92 33.731 Q 144.913 33.479 144.889 33.017 A 78.82 78.82 0 0 0 144.873 32.715 A 30.717 30.717 0 0 1 144.836 31.799 A 38.613 38.613 0 0 1 144.824 30.811 L 144.824 28.906 L 144.824 27.637 Q 145.955 27.166 146.813 27.422 A 2.063 2.063 0 0 1 146.875 27.441 A 2.974 2.974 0 0 1 148.321 28.491 A 3.597 3.597 0 0 1 148.34 28.516 Q 148.926 29.297 149.219 30.322 A 25.818 25.818 0 0 1 149.657 32.079 A 23.315 23.315 0 0 1 149.707 32.324 A 9.185 9.185 0 0 1 152.649 29.29 A 11.209 11.209 0 0 1 153.369 28.857 A 15.706 15.706 0 0 1 158.496 27.1 A 22.122 22.122 0 0 1 162.012 26.817 A 21.951 21.951 0 0 1 163.965 26.904 A 16.747 16.747 0 0 1 166.124 27.232 Q 167.503 27.54 168.604 28.076 A 6.689 6.689 0 0 1 169.988 28.962 A 4.995 4.995 0 0 1 171.289 30.615 Q 171.992 32.065 171.114 33.949 A 7.539 7.539 0 0 1 170.898 34.375 Q 168.359 32.91 165.576 32.031 Q 163.489 31.372 161.484 31.372 A 12.012 12.012 0 0 0 160.156 31.445 A 9.67 9.67 0 0 0 155.485 33.29 A 11.529 11.529 0 0 0 155.273 33.447 A 9.167 9.167 0 0 0 153.458 35.326 Q 152.386 36.78 151.563 38.867 Q 150.098 42.578 149.756 48.682 Q 149.476 53.678 150.21 60.669 A 136.155 136.155 0 0 0 150.586 63.867 Z M 175.836 46.064 A 30.887 30.887 0 0 0 175.781 47.852 A 38.411 38.411 0 0 0 175.944 51.49 Q 176.393 56.198 178.076 59.277 A 19.34 19.34 0 0 0 178.26 59.605 Q 179.155 61.17 180.221 62.342 A 10.626 10.626 0 0 0 183.838 64.99 Q 187.305 66.504 191.26 65.527 A 17.468 17.468 0 0 0 194.157 64.534 A 19.905 19.905 0 0 0 198.682 61.719 A 19.648 19.648 0 0 0 201.573 58.791 A 23.978 23.978 0 0 0 204.395 54.297 A 21.206 21.206 0 0 0 206.009 49.705 A 26.115 26.115 0 0 0 206.641 43.848 A 27.5 27.5 0 0 0 206.673 42.508 Q 206.673 42.061 206.659 41.612 A 30.628 30.628 0 0 0 205.859 35.645 A 32.836 32.836 0 0 0 205.313 33.594 A 28.049 28.049 0 0 0 202.979 28.027 A 21.654 21.654 0 0 0 201.712 26.015 A 17.5 17.5 0 0 0 198.389 22.461 A 11.423 11.423 0 0 0 197.625 21.899 A 8.885 8.885 0 0 0 192.578 20.313 Q 189.551 20.313 187.109 21.729 Q 184.668 23.145 182.813 25.439 Q 180.957 27.734 179.639 30.664 Q 178.32 33.594 177.441 36.621 A 40.343 40.343 0 0 0 176.172 42.627 Q 175.928 44.489 175.836 46.064 Z M 179.395 48.242 Q 179.688 54.199 181.445 57.422 A 12.84 12.84 0 0 0 182.709 59.339 Q 183.52 60.345 184.451 60.99 A 6.56 6.56 0 0 0 185.693 61.67 A 6.936 6.936 0 0 0 188.36 62.195 Q 189.684 62.195 191.113 61.719 A 13.32 13.32 0 0 0 194.947 59.668 A 16.921 16.921 0 0 0 196.582 58.252 A 20.052 20.052 0 0 0 199.437 54.694 A 25.751 25.751 0 0 0 200.928 52.002 A 20.341 20.341 0 0 0 202.712 45.979 A 24.897 24.897 0 0 0 202.93 43.555 Q 203.125 40.039 202.393 36.719 A 27.501 27.501 0 0 0 201.4 33.261 A 21.696 21.696 0 0 0 200.342 30.811 A 14.243 14.243 0 0 0 198.977 28.62 A 10.807 10.807 0 0 0 197.119 26.709 A 6.793 6.793 0 0 0 192.773 25.195 A 8.02 8.02 0 0 0 189.971 25.676 A 7.44 7.44 0 0 0 188.574 26.367 A 12.033 12.033 0 0 0 186.235 28.317 A 14.947 14.947 0 0 0 185.205 29.541 A 20.413 20.413 0 0 0 183.182 32.846 A 23.717 23.717 0 0 0 182.617 34.082 Q 181.543 36.621 180.811 39.16 A 37.607 37.607 0 0 0 179.932 42.886 A 32.942 32.942 0 0 0 179.736 44.092 A 39.974 39.974 0 0 0 179.528 45.797 Q 179.395 47.144 179.395 48.242 Z M 112.988 15.527 A 154.42 154.42 0 0 0 113 17.505 A 122.64 122.64 0 0 0 113.037 19.336 Q 113.086 21.094 113.33 22.754 Q 113.574 24.414 113.965 26.172 A 43.569 43.569 0 0 0 114.363 27.803 Q 114.655 28.912 115.039 30.176 A 34.756 34.756 0 0 0 117.474 29.686 Q 118.795 29.374 120.285 28.935 A 73.348 73.348 0 0 0 122.266 28.32 A 38.322 38.322 0 0 0 130.322 24.609 A 28.416 28.416 0 0 0 134.764 21.306 A 24.3 24.3 0 0 0 136.816 19.189 A 11.024 11.024 0 0 0 138.873 15.718 A 10.072 10.072 0 0 0 139.453 12.305 A 7.357 7.357 0 0 0 139.109 10.024 A 6.554 6.554 0 0 0 138.477 8.643 A 8.93 8.93 0 0 0 135.986 5.957 Q 134.473 4.883 132.617 4.297 A 12.63 12.63 0 0 0 130.224 3.78 A 10.912 10.912 0 0 0 129.004 3.711 Q 126.172 3.711 123.291 4.395 A 17.318 17.318 0 0 0 119.452 5.781 A 15.466 15.466 0 0 0 118.115 6.543 A 11.877 11.877 0 0 0 114.404 10.254 A 9.154 9.154 0 0 0 113.088 13.974 A 11.741 11.741 0 0 0 112.988 15.527 Z M 77.811 51.755 A 28.454 28.454 0 0 0 77.832 50.684 Q 77.832 49.512 77.914 47.873 A 105.214 105.214 0 0 1 77.979 46.729 Q 78.125 44.336 78.467 41.748 Q 78.809 39.16 79.492 36.572 Q 80.176 33.984 81.348 31.934 Q 82.52 29.883 84.277 28.564 A 6.463 6.463 0 0 1 85.865 27.687 A 7.018 7.018 0 0 1 88.379 27.246 A 7.884 7.884 0 0 1 89.72 27.356 A 5.889 5.889 0 0 1 91.895 28.174 A 7.159 7.159 0 0 1 94.238 30.566 A 7.928 7.928 0 0 1 94.768 31.62 A 8.978 8.978 0 0 1 95.361 33.887 A 12.917 12.917 0 0 1 95.472 35.574 A 12.959 12.959 0 0 1 95.313 37.598 A 15.022 15.022 0 0 1 95.303 38.117 Q 95.249 39.687 94.873 41.65 Q 94.434 43.945 93.604 46.387 A 32.018 32.018 0 0 1 91.553 51.123 A 24.435 24.435 0 0 1 91.476 51.266 A 22.136 22.136 0 0 1 88.721 55.273 A 14.552 14.552 0 0 1 88.26 55.78 A 12.559 12.559 0 0 1 85.107 58.203 A 9.047 9.047 0 0 1 80.762 59.277 A 4.551 4.551 0 0 1 80.702 59.273 Q 79.284 59.16 78.662 58.203 A 5.081 5.081 0 0 1 78.124 57.092 A 6.619 6.619 0 0 1 77.832 55.859 A 12.874 12.874 0 0 1 77.702 54.036 A 12.789 12.789 0 0 1 77.734 53.125 A 48.014 48.014 0 0 0 77.747 52.945 Q 77.789 52.318 77.811 51.755 Z M 51.758 50.488 Q 46.875 51.855 44.922 53.76 A 8.256 8.256 0 0 0 44.083 54.703 Q 43.186 55.896 43.186 57.029 A 2.849 2.849 0 0 0 43.213 57.422 A 3.722 3.722 0 0 0 43.945 59.144 Q 44.514 59.91 45.508 60.596 A 10.579 10.579 0 0 0 48.374 61.972 A 13.998 13.998 0 0 0 50.488 62.451 Q 52.672 62.779 55.128 62.347 A 19.289 19.289 0 0 0 56.836 61.963 A 15.164 15.164 0 0 0 61.095 60.033 A 19.696 19.696 0 0 0 63.379 58.301 A 30.758 30.758 0 0 0 62.646 56.66 Q 61.854 55.023 61.061 53.989 A 9.174 9.174 0 0 0 61.035 53.955 A 10.323 10.323 0 0 0 59.894 52.697 A 7.634 7.634 0 0 0 58.496 51.66 A 7.852 7.852 0 0 0 55.624 50.703 A 8.988 8.988 0 0 0 55.469 50.684 A 27.392 27.392 0 0 0 53.711 50.537 A 37.221 37.221 0 0 0 51.758 50.488 Z M 246.973 26.074 A 2.268 2.268 0 0 0 246.371 26.165 Q 245.811 26.32 245.099 26.74 A 10.424 10.424 0 0 0 244.678 27.002 A 12.162 12.162 0 0 0 242.664 28.668 A 14.285 14.285 0 0 0 242.041 29.346 Q 240.82 30.762 239.99 32.373 A 6.808 6.808 0 0 0 239.641 33.163 Q 239.235 34.282 239.453 35.156 A 19.285 19.285 0 0 0 241.665 35.282 A 21.633 21.633 0 0 0 244.727 35.059 A 26.664 26.664 0 0 0 247.648 34.48 A 21.516 21.516 0 0 0 249.707 33.838 Q 251.713 33.097 253.095 32.122 A 10.008 10.008 0 0 0 253.418 31.885 A 5.546 5.546 0 0 0 254.07 31.305 Q 254.836 30.498 254.836 29.665 A 1.815 1.815 0 0 0 254.834 29.59 Q 254.788 28.486 253.183 27.599 A 7.593 7.593 0 0 0 252.979 27.49 Q 251.502 26.732 248.426 26.267 A 42.953 42.953 0 0 0 246.973 26.074 Z M 209.766 2.539 Q 211.035 2.539 212.5 2.881 A 9.975 9.975 0 0 1 215.234 3.955 Q 216.504 4.688 217.334 5.811 A 4.23 4.23 0 0 1 218.134 7.914 A 5.445 5.445 0 0 1 218.164 8.496 A 5.203 5.203 0 0 1 217.959 10.026 Q 217.441 11.708 215.617 12.149 A 6.224 6.224 0 0 1 214.16 12.305 Q 212.305 12.305 211.328 11.328 A 4.867 4.867 0 0 1 210.108 9.256 A 5.956 5.956 0 0 1 210.01 8.887 A 11.533 11.533 0 0 1 209.734 6.948 Q 209.711 6.549 209.711 6.136 A 14.826 14.826 0 0 1 209.717 5.713 A 125.19 125.19 0 0 0 209.753 4.065 A 99.314 99.314 0 0 0 209.766 2.539 Z M 213.876 8.31 A 1.014 1.014 0 0 0 213.867 8.447 A 0.975 0.975 0 0 0 213.878 8.602 Q 213.922 8.874 214.139 8.886 A 0.37 0.37 0 0 0 214.16 8.887 A 0.496 0.496 0 0 0 214.322 8.863 Q 214.551 8.784 214.551 8.447 A 0.72 0.72 0 0 0 214.533 8.281 Q 214.48 8.057 214.264 8.017 A 0.563 0.563 0 0 0 214.16 8.008 Q 213.917 8.008 213.876 8.31 Z" font-size="12" vector-effect="non-scaling-stroke" fill="#fed136" class="color000 svgShape colorStroke000 svgStroke"></path></svg>