<svg width="51" height="46" viewBox="0 0 51 46" fill="none" xmlns="http://www.w3.org/2000/svg">
<path fill-rule="evenodd" clip-rule="evenodd" d="M39.5845 43.5842C40.0932 43.3231 41.2377 42.7391 42.1278 42.2866C42.1394 42.2751 42.6856 41.9965 43.2635 41.7031C43.8334 41.4136 44.4343 41.1098 44.5844 41.0329C45.4197 40.6047 47.8013 39.3901 49.3529 38.6011C50.1157 38.2131 50.5966 37.9434 50.668 37.8784C50.8794 37.7361 50.8594 37.4045 50.8594 37.3394C50.8594 37.2742 50.7465 37.0485 50.4365 36.591C50.1266 36.1335 49.4692 35.161 48.9759 34.43C48.4826 33.6991 47.6905 32.5307 47.2157 31.8339C46.7409 31.1369 46.2165 30.3595 46.0501 30.106C45.8836 29.8526 45.7254 29.6195 45.6982 29.5877C45.6711 29.556 45.3618 29.1025 45.0106 28.5798C44.6596 28.0572 44.1012 27.2338 43.7703 26.7504C43.1193 25.7997 42.8746 25.4297 42.8124 25.3014C42.7904 25.2563 42.7351 25.1785 42.6894 25.1287C42.644 25.0787 42.125 24.2975 41.7535 23.7718C41.3723 23.2326 41.0935 22.7641 40.8135 22.5054C40.5334 22.2466 38.828 22.7163 37.3014 23.1952C37.3014 23.1952 36.3001 23.4687 36.0298 23.5419C35.7597 23.6152 35.0183 23.8187 34.3825 23.994C33.7467 24.1695 33.1416 24.3159 32.7946 24.4112C32.4477 24.5065 32.0454 24.5592 31.8675 24.6877C31.7211 24.7934 31.5851 25.1998 31.5056 25.3423C31.4262 25.4848 31.4291 25.5369 31.2281 25.8654C31.2281 25.8654 31.1341 26.9397 31.3552 28.1603C31.509 29.0088 31.6896 30.0009 31.7567 30.3652C31.824 30.7295 31.9274 31.2996 31.9865 31.6323C32.0457 31.9648 32.1994 32.8064 32.328 33.5021C32.328 33.5021 32.9086 36.5898 32.9086 36.6555C32.9086 36.7212 32.9975 37.2441 33.1061 37.8176C33.2145 38.391 33.3971 39.3786 33.5116 40.0122C33.626 40.6456 33.7327 41.2224 33.7488 41.2936C33.7943 41.4961 33.7588 41.488 32.822 41.0771C32.6947 41.0215 32.2656 40.8397 31.8683 40.6732C31.4709 40.5069 30.7947 40.2216 30.3655 40.0393C28.8171 39.3819 27.6394 38.889 27.6173 38.889C27.6048 38.889 27.4572 38.8276 27.2894 38.7524C26.9889 38.6178 26.7695 38.5252 25.2213 37.8793C24.7921 37.7004 24.2979 37.4887 24.1231 37.4092C23.9483 37.3297 23.7401 37.243 23.6608 37.2166C23.1251 37.0387 21.3796 36.235 21.3903 36.171C21.419 36.0003 21.7703 34.0361 21.8725 33.4752C21.9332 33.1427 22.0226 32.6331 22.071 32.343L22.1594 31.8154L21.6801 30.9896C20.6743 29.2564 20.3971 28.8096 20.34 28.8284C20.34 28.8284 20.3427 28.815 19.785 30.8547C19.5606 31.7734 19.2519 33.0303 19.0989 33.6481C18.946 34.2657 18.7472 35.0822 18.6569 35.4622C18.5667 35.8423 18.4887 36.1606 18.4837 36.1694C18.4747 36.1853 17.6426 36.433 14.6727 37.3036C13.8462 37.546 12.9229 37.8187 12.621 37.91C12.3189 38.0011 11.6297 38.2055 11.0892 38.3642C10.5489 38.5229 9.57347 38.8115 8.92178 39.0055C8.27008 39.1997 7.69464 39.3672 7.64294 39.3781C7.59141 39.389 7.27914 39.4796 6.9494 39.5792C5.93252 39.8867 5.22529 40.1407 5.18849 40.0824C5.15168 40.024 5.27442 39.9012 5.39338 39.6954C6.19032 38.3172 7.46225 36.1131 7.57879 35.9084C7.65539 35.7735 7.74149 35.6777 7.7702 35.6953C7.79873 35.713 7.80651 35.6869 7.78749 35.6372C7.7683 35.5878 7.77902 35.5152 7.81083 35.4759C7.86703 35.4071 9.13048 33.2296 10.058 31.6034C10.4685 30.8836 10.5319 30.7735 10.8549 30.2212C11.0218 29.9361 11.3154 29.4308 11.5076 29.0981C11.6997 28.7656 12.1037 28.0671 12.4049 27.5461C12.4049 27.5461 12.8984 26.6245 12.9528 26.5987C13.0072 26.573 13.2926 26.5242 13.2926 26.5242C13.4795 26.4831 13.9576 26.3724 14.3549 26.278C15.9867 25.8905 16.9913 25.6091 17.633 25.4608C17.633 25.4608 18.0858 25.3355 18.3032 25.276C18.2819 25.24 18.1996 25.1069 18.1202 24.9803C17.9534 24.7135 17.6299 24.1427 17.492 23.8716C17.4397 23.7686 17.3598 23.6843 17.3143 23.6843C17.2688 23.6843 16.8379 23.7736 16.3569 23.8827C15.8757 23.9916 14.9357 24.2005 14.2681 24.3466C13.6007 24.4929 12.8115 24.6617 12.43 24.7495C12.43 24.7495 11.9262 24.8367 11.6761 24.98C11.426 25.1233 10.93 25.9722 10.93 25.9722C10.2686 26.9643 9.58125 28.073 7.63792 31.0275C7.15862 31.7561 6.55292 32.6762 6.292 33.0721C5.49557 34.2802 4.6312 35.5949 4.09553 36.4126C3.81524 36.8402 3.16476 37.8251 2.64983 38.6011C2.13491 39.3771 1.56465 40.243 1.38258 40.5254L1.05146 41.0387C0.961544 41.1892 0.827691 41.4147 0.769714 41.6831C0.69866 42.0121 0.61084 42.2954 0.706783 42.72C0.741808 42.875 0.930478 43.1846 1.05146 43.2747C1.35932 43.5039 1.65499 43.6225 2.10219 43.6225C2.54939 43.6225 3.25156 43.4726 3.31519 43.4505C3.50314 43.3993 5.11535 42.9043 6.66755 42.421C7.03308 42.3074 7.44928 42.1817 7.59227 42.1421C7.73544 42.1023 8.41169 41.8962 9.09521 41.684C9.77854 41.4717 10.4548 41.2644 10.598 41.2234C10.741 41.1823 11.0792 41.0792 11.3493 40.9941C11.6195 40.9092 12.0878 40.7664 12.3897 40.6769C13.0474 40.4818 15.5082 39.7291 16.638 39.3773C19.2028 38.5786 19.3859 38.5305 19.5709 38.607C19.4746 38.4854 19.8676 38.7276 21.58 39.4238C22.168 39.6629 22.8834 39.9532 23.1694 40.0691C23.4555 40.1849 24.0277 40.4178 24.4409 40.5868C24.8544 40.7555 26.4278 41.3937 26.7616 41.527C26.8553 41.5765 28.5484 42.2664 30.1054 42.8894C30.3914 43.004 30.7037 43.1337 30.799 43.1778C30.8944 43.2219 31.3625 43.4138 31.8394 43.6044C33.3795 44.2196 34.7264 44.7656 34.8451 44.8229C35.18 44.9487 35.6409 45.1002 36.2118 45.0711C36.7828 45.042 37.0483 44.8863 39.5845 43.5842ZM36.6947 25.559C37.4632 25.3429 39.3957 24.7726 39.6424 24.6895C40.0005 24.5686 40.0365 24.5835 40.2372 24.9371C40.3408 25.1192 40.6218 25.5884 40.8618 25.9799L41.298 26.6918C41.298 26.6918 41.6233 27.2096 41.9734 27.7878C42.3236 28.366 42.7918 29.137 43.0142 29.5014C43.2365 29.8655 43.7342 30.682 44.1201 31.3155C44.506 31.9491 44.846 32.5062 44.8754 32.5537C44.9049 32.6013 45.0848 32.8909 45.2751 33.1973C45.4655 33.5039 45.8725 34.1777 46.1796 34.6949C46.4867 35.2119 46.8273 35.7742 46.9363 35.9441C47.0454 36.1141 47.1232 36.2829 47.1094 36.319C47.0954 36.3553 46.554 36.6543 45.9064 36.9835C45.2587 37.3127 44.0556 37.9293 43.2327 38.3538C42.4098 38.7785 41.6584 39.0959 41.6584 39.0959L41.5939 39.125C41.5939 39.125 37.1613 41.5803 37.0401 41.4698C36.919 41.3593 36.8766 40.9189 36.7218 40.2906C35.8339 36.6852 35.2504 34.2935 35.1891 34.0096C35.1891 34.0096 35.0896 33.6401 35.0524 33.4897C35.015 33.3393 34.9307 33.0159 34.8648 32.7716C34.8648 32.7716 34.6765 31.9837 34.0061 29.2422C33.7196 28.0702 33.4545 26.9886 33.4173 26.8387C33.3802 26.6888 33.3612 26.5562 33.375 26.5439C33.3886 26.5318 33.7251 26.4265 34.1225 26.3098C34.5198 26.1933 35.1572 26.0058 35.5386 25.8936C35.92 25.7812 36.4403 25.6306 36.6947 25.559Z" fill="#95E375"/>
<path fill-rule="evenodd" clip-rule="evenodd" d="M31.2281 25.8654C31.2281 25.8654 31.1341 26.9397 31.3552 28.1603C31.3552 28.1603 26.684 26.7684 26.6438 26.5764C26.5645 26.1979 26.5343 24.6988 26.5649 24.6291C26.5956 24.5593 31.2281 25.8654 31.2281 25.8654ZM23.6506 23.9509C23.6506 23.8042 21.4479 23.1495 20.9844 23.1495C20.3727 23.1495 17.3143 23.6843 17.3143 23.6843C17.3598 23.6843 17.4397 23.7686 17.492 23.8716C17.6299 24.1427 17.9534 24.7135 18.1202 24.9803C18.1996 25.1069 18.2819 25.24 18.3032 25.276C18.3032 25.276 20.9844 24.8305 21.1069 24.9803C21.2294 25.1301 20.34 28.8284 20.34 28.8284C20.3971 28.8096 20.6743 29.2564 21.6801 30.9896L22.1594 31.8154L23.3683 25.6661C23.3683 25.6661 23.6506 24.0976 23.6506 23.9509Z" fill="#95E375"/>
<path fill-rule="evenodd" clip-rule="evenodd" d="M25.2153 10.8945C25.898 10.8945 26.4515 11.448 26.4515 12.1307V17.9459C30.7923 17.301 34.1225 13.5586 34.1225 9.03842C34.1225 4.06471 30.0905 0.0327148 25.1168 0.0327148C20.1431 0.0327148 16.1111 4.06471 16.1111 9.03842C16.1111 13.6268 19.5425 17.4137 23.9791 17.9729V12.1307C23.9791 11.448 24.5326 10.8945 25.2153 10.8945ZM22.4151 9.03844C23.9072 9.03844 25.1168 7.82884 25.1168 6.33673C25.1168 4.84461 23.9072 3.63502 22.4151 3.63502C20.923 3.63502 19.7134 4.84461 19.7134 6.33673C19.7134 7.82884 20.923 9.03844 22.4151 9.03844Z" fill="#F01A44"/>
<path d="M26.4515 12.1307C26.4515 11.448 25.898 10.8945 25.2153 10.8945C24.5326 10.8945 23.9791 11.448 23.9791 12.1307V17.9729C24.3517 18.0199 24.7314 18.0441 25.1168 18.0441C25.5703 18.0441 26.016 18.0106 26.4515 17.9459V12.1307Z" fill="#F01A44"/>
<path fill-rule="evenodd" clip-rule="evenodd" d="M25.1168 35.4622C24.434 35.4622 23.9972 34.9088 23.9972 34.226V29.3645H26.353V34.226C26.353 34.9088 25.7995 35.4622 25.1168 35.4622Z" fill="#F01A44"/>
<path d="M25.1168 18.0441C24.7314 18.0441 24.3517 18.0199 23.9791 17.9729V22.3444L23.9972 29.3645H26.353L26.3348 22.4176L26.4515 17.9459C26.016 18.0106 25.5703 18.0441 25.1168 18.0441Z" fill="#F01A44"/>
</svg>
