<svg width="478" height="314" viewBox="0 0 478 314" fill="none" xmlns="http://www.w3.org/2000/svg">
<path fill-rule="evenodd" clip-rule="evenodd" d="M380.111 44.2195C377.77 42.5737 375.853 41.441 375.434 41.4147C368.887 41.0976 364.603 40.4827 359.167 39.2464L358.601 48.9794L357.645 65.4085C359.843 67.2815 362.217 69.1009 364.625 70.6579C374.326 76.9294 381.261 78.9308 392.579 81.2647C392.579 81.2647 392.934 86.1939 392.418 91.297L403.821 91.9598C404.327 85.6695 404.457 80.3818 404.457 80.3818C405.447 80.1393 406.557 79.777 407.741 79.3299L389.817 78.2881L384.334 72.0626L378.852 65.8377L380.111 44.2195ZM411.76 77.6348L391.037 76.4303L385.94 70.6169L380.842 64.8033L381.963 45.566C385.048 47.8841 388.366 50.7595 389.867 53.0595C393.163 48.5242 400.867 44.2388 400.867 44.2388C411.539 45.178 415.068 45.0603 423.816 43.288L423.856 43.2799C428.866 42.2648 431.783 41.6737 436.359 39.5213C439.106 38.229 440.743 36.7515 442.44 35.2201C444.122 33.7019 445.862 32.1307 448.802 30.6341C449.018 34.6884 447.873 40.5295 447.873 40.5295C447.873 40.5295 446.809 47.9647 444.632 52.2045C442.544 56.2688 440.618 58.2123 437.325 61.5019C433.731 65.0923 426.923 69.5109 426.923 69.5109C426.923 69.5109 419.003 74.3168 411.76 77.6348ZM403.265 97.7134L391.36 97.0214C391.249 97.3883 391.129 97.7443 390.999 98.0868C389.334 102.495 387.722 104.785 384.663 108.473C382.229 111.407 380.162 113.459 377.708 115.514L386.486 116.025L388.718 114.101C390.64 112.444 391.181 112.275 392.614 112.881C394.932 113.861 396.727 116.752 396.075 118.455C395.325 120.414 392.94 122.186 391.191 122.084C390.36 122.036 389.026 121.263 388.227 120.366C386.842 118.811 386.329 118.701 376.976 117.951L374.866 117.782C374.338 118.186 373.788 118.602 373.21 119.035C372.336 119.69 371.54 120.293 370.794 120.858C368.665 122.47 366.95 123.77 365.015 125.063L370.674 125.392L379.791 135.565L386.724 143.301C387.253 142.496 387.754 141.705 388.211 140.947C392.322 134.13 394.517 129.983 397.112 122.532C399.559 115.502 400.715 112.042 402.133 105.12C402.593 102.877 402.965 100.317 403.265 97.7134ZM383.284 148.27L377.305 141.689L368.209 131.677L356.105 130.974L354.559 130.884C350.392 132.803 346.86 133.888 341.517 135.53C340.132 135.955 338.625 136.418 336.955 136.943C329.045 139.425 316.9 139.213 316.9 139.213C316.9 139.213 306.843 139.582 300.091 139.729C301.088 141.432 301.045 143.166 299.968 144.981C298.507 147.441 296.73 148.232 293.589 147.821C291.18 147.506 290.786 147.74 284.79 153.049L278.513 158.608L257.304 157.375L236.094 156.142L232.384 151.804L228.674 147.465L229.154 139.216L229.34 136.026C222.814 135.468 216.186 134.91 209.49 134.398C209.475 134.653 209.46 134.917 209.444 135.189L208.975 143.316L215.133 150.285C220.562 156.428 221.496 157.222 223.017 156.979C225.277 156.619 228.609 159.619 228.477 161.893C228.361 163.885 225.513 166.463 223.583 166.324C220.811 166.124 218.454 162.774 219.245 160.159C219.601 158.981 218.543 157.454 213.323 151.617L206.968 144.51L207.443 136.354C207.487 135.588 207.525 134.889 207.557 134.25C196.482 133.375 185.314 131.832 174.265 130.306C166.349 129.213 158.495 128.128 150.781 127.303C137.378 125.546 125.736 124.528 114.964 123.586C105.886 122.792 97.4263 122.052 89.05 120.97C74.0322 119.388 60.6564 118.989 51.8283 119.079C51.4669 119.082 51.1126 119.087 50.7653 119.093L59.7083 129.179L65.7743 135.965L125.976 139.472L186.177 142.98L198.543 156.862L210.909 170.743L242.299 172.571L273.689 174.4L281.228 167.787L288.767 161.173L316.942 162.819L345.118 164.464L346.69 162.294C348.855 159.309 351.724 158.138 355.348 158.76C362.256 159.947 364.319 168.52 358.742 172.866C356.868 174.327 355.797 174.672 353.547 174.541C349.564 174.31 347.824 173.186 346.298 169.859L344.973 166.971L317.065 165.349L289.156 163.727L281.713 170.366L274.271 177.005L242.185 175.14L210.099 173.275L197.814 159.382L185.53 145.489L125.272 141.986L65.0124 138.484L59.0392 131.708L48.3882 119.154C41.7737 119.387 38.1698 120.076 36.9939 120.944L36.9331 120.989C35.5474 122.012 32.837 124.013 31.7584 126.887C31.3373 128.009 30.9884 129.325 30.7151 130.704L51.5442 131.915L58.8806 140.056L66.217 148.197L122.909 151.492L179.601 154.787L193.224 170.025L206.847 185.262L245.264 187.509C266.394 188.744 283.763 189.835 283.862 189.932C283.96 190.029 287.433 193.851 291.58 198.423L299.118 206.736L312.567 207.518C315.022 206.481 317.527 205.333 320.638 203.725C325.737 201.089 332.249 196.957 336.409 194.234C335.616 192.627 333.899 190.722 331.541 188.104V188.103L331.539 188.102C330.741 187.216 329.869 186.248 328.935 185.183L323.72 179.236L314.491 178.7L305.262 178.164L303.353 179.981C301.036 182.188 299.181 182.186 297.212 179.975C295.301 177.831 295.466 175.397 297.653 173.452C299.735 171.601 302.133 172.027 304.014 174.582C305.207 176.203 305.406 176.243 314.961 176.799L324.693 177.364L330.225 183.45L335.756 189.535L338.687 192.729C339.852 191.952 340.545 191.479 340.545 191.479C340.545 191.479 354.719 181.003 359.192 176.549C363.665 172.095 373.28 161.151 377.211 156.271C377.211 156.271 380.148 152.608 383.284 148.27ZM294.448 214.715L287.018 206.354L279.487 197.881L240.994 195.643L202.501 193.406L189.224 178.491L175.947 163.575L119.143 160.274L62.3394 156.972L55.0665 148.835L47.7935 140.697L30 139.663C30.0225 142.69 30.1281 145.208 30.5871 148.055L46.8513 149L54.8865 158.146L62.9211 167.292L117.797 170.482L172.674 173.671L187.174 189.943L201.674 206.215L238.166 208.337L274.66 210.458L281.485 218.189C285.819 217.22 290.037 216.206 294.448 214.715ZM279.074 218.722L273.398 212.345L236.905 210.225L200.412 208.104L185.891 191.814L171.37 175.524L116.467 172.333L61.5644 169.142L53.7747 160.321L45.9856 151.5L31.0821 150.634C31.1345 150.871 31.1894 151.111 31.2469 151.355C32.0068 154.579 32.5235 156.685 33.5597 159.156L42.6616 159.685L51.744 169.857L60.8263 180.028L73.4478 180.761L86.0699 181.495L91.9626 188.085L97.8547 194.673L111.798 195.696C119.467 196.258 126.351 196.603 127.096 196.461C127.841 196.32 128.826 195.494 129.285 194.625C129.369 194.465 129.472 194.247 129.591 193.994C130.12 192.872 130.969 191.068 131.953 190.668C133.938 189.86 137.451 190.209 139.546 191.231C143.611 193.212 143.377 201.492 139.546 203.896C136.673 205.697 131.604 204.969 129.285 202.207L127.967 198.717L112.361 197.81L96.7539 196.902L90.7384 190.124L84.7228 183.345L72.059 182.609L59.3952 181.873L51.3899 172.688C46.9867 167.637 42.9036 163.198 42.3153 162.826C42.0975 162.688 39.5327 162.43 34.9363 162.073C34.9706 162.14 35.0053 162.206 35.0404 162.274C37.524 167.032 40.2142 172.108 44.0311 176.68C45.3044 177.975 46.3876 179.128 47.4163 180.223C49.8598 182.825 51.9953 185.099 55.6378 188.165C59.1436 191.116 61.5371 192.999 65.2475 195.724C69.6724 198.972 70.3547 199.447 77.1503 203.188C78.4826 203.921 79.6162 204.548 80.6213 205.105C84.743 207.386 86.7063 208.473 91.3665 210.769C99.5942 214.824 110.129 218.436 110.129 218.436C110.129 218.436 120.538 222.259 127.524 223.421C127.524 223.421 131.875 229.743 134.011 233.144C136.56 237.203 140.57 243.21 143.775 246.847C148.683 252.417 155.201 256.705 161.587 260.765C166.747 264.045 171.13 265.871 175.976 267.891C178.017 268.741 180.141 269.626 182.439 270.668C189.383 273.817 201.845 274.013 201.845 274.013C201.845 274.013 193.841 262.667 189.701 254.906C189.398 254.337 189.104 253.79 188.82 253.259C185.745 247.516 183.746 243.783 181.715 237.187C180.264 232.472 179.013 224.895 179.013 224.895C179.013 224.895 193.538 226.93 202.903 227.134C217.491 227.452 240.368 225.251 240.368 225.251C240.368 225.251 259.417 223.255 273.467 219.981C275.321 219.548 277.126 219.151 278.901 218.76C278.959 218.748 279.017 218.735 279.074 218.722ZM231.261 136.19L231.077 139.341L230.657 146.548L233.971 150.221L237.285 153.895L257.331 155.156L277.378 156.417L283.6 151.016C289.183 146.17 289.772 145.455 289.33 144.054C288.866 142.581 288.994 141.194 289.513 140.02C287.814 140.017 285.838 139.945 282.667 139.743C280.02 139.574 276.641 139.415 273.245 139.255C269.691 139.088 266.118 138.92 263.345 138.738C253.481 138.093 243.177 137.21 232.584 136.303C232.144 136.266 231.702 136.228 231.261 136.19ZM351.543 59.6532L352.126 49.6273L352.848 37.24C350.483 35.6953 344.831 32.1356 340.523 30.4647C340.523 30.4647 340.942 38.95 342.304 44.5289C343.692 48.789 344.791 50.5874 346.598 53.5468C346.693 53.7016 346.789 53.8595 346.888 54.0212C347.667 55.299 349.326 57.3352 351.543 59.6532ZM138.137 200.706C139.193 198.983 139.795 195.087 138.7 193.857C137.407 192.406 133.583 193.642 131.953 195.091C130.32 196.544 130.354 198.747 131.564 200.706C132.739 202.608 137.097 202.403 138.137 200.706Z" fill="#3F5CB4"/>
</svg>
