<svg width="21" height="42" viewBox="0 0 21 42" fill="none" xmlns="http://www.w3.org/2000/svg">
<path fill-rule="evenodd" clip-rule="evenodd" d="M10.6094 12.5435C11.3675 12.5435 11.9821 13.1581 11.9821 13.9162V20.3734C16.8021 19.6572 20.5 15.5017 20.5 10.4824C20.5 4.95957 16.0228 0.482422 10.5 0.482422C4.97715 0.482422 0.5 4.95957 0.5 10.4824C0.5 15.5774 4.31026 19.7824 9.23671 20.4034V13.9162C9.23671 13.1581 9.85129 12.5435 10.6094 12.5435ZM7.5 10.4824C9.15685 10.4824 10.5 9.1393 10.5 7.48244C10.5 5.82559 9.15685 4.48244 7.5 4.48244C5.84315 4.48244 4.5 5.82559 4.5 7.48244C4.5 9.1393 5.84315 10.4824 7.5 10.4824Z" fill="#F01A44"/>
<path d="M11.9821 13.9162C11.9821 13.1581 11.3675 12.5435 10.6094 12.5435C9.85129 12.5435 9.23671 13.1581 9.23671 13.9162V20.4034C9.65047 20.4555 10.0721 20.4824 10.5 20.4824C11.0036 20.4824 11.4985 20.4452 11.9821 20.3734V13.9162Z" fill="#F01A44"/>
<path d="M9.23671 40.1452C9.23671 40.9033 9.85129 41.5179 10.6094 41.5179C11.3675 41.5179 11.9821 40.9033 11.9821 40.1452V20.3734C11.4985 20.4452 11.0036 20.4824 10.5 20.4824C10.0721 20.4824 9.65047 20.4555 9.23671 20.4034V40.1452Z" fill="#F01A44"/>
</svg>
