<svg width="25" height="37" viewBox="0 0 25 37" fill="none" xmlns="http://www.w3.org/2000/svg">
<mask id="path-1-inside-1_110_15" fill="white">
<path fill-rule="evenodd" clip-rule="evenodd" d="M11.3183 0.976565C6.06889 1.70413 1.84051 5.86933 1.05391 11.0878C0.759056 13.0444 0.924869 15.0372 1.54348 16.9708C2.16945 18.9275 6.0896 26.4939 8.70677 30.7971C9.91789 32.7884 12.2473 36.4158 12.475 36.665C12.9708 37.2075 13.1713 37.0098 14.9825 34.1932C18.0272 29.4586 19.8859 26.1888 22.3294 21.2689C24.3711 17.1576 24.7734 15.9486 24.8963 13.553C25.1995 7.64604 21.1049 2.31736 15.3492 1.1285C14.3592 0.924056 12.2664 0.845137 11.3183 0.976565ZM11.6123 7.02608C10.5103 7.26594 9.63557 7.76711 8.71826 8.68452C7.39995 10.0028 6.82411 11.4809 6.94155 13.2449C7.04263 14.7638 7.56845 15.9174 8.6729 17.0435C9.65794 18.0479 10.7452 18.6134 12.0592 18.8046C15.9741 19.3745 19.4082 15.9404 18.8383 12.0254C18.4864 9.6072 16.5424 7.52497 14.1667 7.02142C13.3286 6.8437 12.4427 6.84535 11.6123 7.02608Z"/>
<path fill-rule="evenodd" clip-rule="evenodd" d="M8.71826 8.68452C9.63557 7.76711 10.5103 7.26594 11.6123 7.02608C12.4427 6.84535 13.3286 6.8437 14.1667 7.02142C16.5424 7.52497 18.4864 9.6072 18.8383 12.0254C19.4082 15.9404 15.9741 19.3745 12.0592 18.8046C10.7452 18.6134 9.65794 18.0479 8.6729 17.0435C7.56845 15.9174 7.04263 14.7638 6.94155 13.2449C6.82411 11.4809 7.39995 10.0028 8.71826 8.68452Z"/>
</mask>
<path fill-rule="evenodd" clip-rule="evenodd" d="M11.3183 0.976565C6.06889 1.70413 1.84051 5.86933 1.05391 11.0878C0.759056 13.0444 0.924869 15.0372 1.54348 16.9708C2.16945 18.9275 6.0896 26.4939 8.70677 30.7971C9.91789 32.7884 12.2473 36.4158 12.475 36.665C12.9708 37.2075 13.1713 37.0098 14.9825 34.1932C18.0272 29.4586 19.8859 26.1888 22.3294 21.2689C24.3711 17.1576 24.7734 15.9486 24.8963 13.553C25.1995 7.64604 21.1049 2.31736 15.3492 1.1285C14.3592 0.924056 12.2664 0.845137 11.3183 0.976565ZM11.6123 7.02608C10.5103 7.26594 9.63557 7.76711 8.71826 8.68452C7.39995 10.0028 6.82411 11.4809 6.94155 13.2449C7.04263 14.7638 7.56845 15.9174 8.6729 17.0435C9.65794 18.0479 10.7452 18.6134 12.0592 18.8046C15.9741 19.3745 19.4082 15.9404 18.8383 12.0254C18.4864 9.6072 16.5424 7.52497 14.1667 7.02142C13.3286 6.8437 12.4427 6.84535 11.6123 7.02608Z" fill="#05FF00"/>
<path d="M11.6123 7.02608L11.5059 6.53752L11.5059 6.53752L11.6123 7.02608ZM8.71826 8.68452L9.07182 9.03807L9.07184 9.03805L8.71826 8.68452ZM6.94155 13.2449L7.44045 13.2117L7.44045 13.2117L6.94155 13.2449ZM8.6729 17.0435L9.02988 16.6934L9.02987 16.6934L8.6729 17.0435ZM12.0592 18.8046L12.1312 18.3098L12.1312 18.3098L12.0592 18.8046ZM18.8383 12.0254L18.3435 12.0974L18.3435 12.0974L18.8383 12.0254ZM14.1667 7.02142L14.0629 7.51054L14.063 7.51055L14.1667 7.02142ZM11.5059 6.53752C10.2969 6.80069 9.33936 7.35621 8.36469 8.33098L9.07184 9.03805C9.93178 8.17801 10.7237 7.7312 11.7186 7.51464L11.5059 6.53752ZM8.36471 8.33096C6.95077 9.7449 6.31506 11.3615 6.44266 13.2781L7.44045 13.2117C7.33316 11.6002 7.84912 10.2608 9.07182 9.03807L8.36471 8.33096ZM6.44266 13.2781C6.55198 14.9208 7.13114 16.1856 8.31593 17.3936L9.02987 16.6934C8.00576 15.6492 7.53329 14.6067 7.44045 13.2117L6.44266 13.2781ZM8.31592 17.3936C9.37268 18.4711 10.5582 19.0914 11.9872 19.2994L12.1312 18.3098C10.9322 18.1353 9.94319 17.6247 9.02988 16.6934L8.31592 17.3936ZM11.9871 19.2994C16.2331 19.9175 19.9512 16.1993 19.3331 11.9534L18.3435 12.0974C18.8653 15.6815 15.7152 18.8315 12.1312 18.3098L11.9871 19.2994ZM19.3331 11.9534C18.9513 9.32971 16.8527 7.07962 14.2703 6.53229L14.063 7.51055C16.2322 7.97032 18.0215 9.8847 18.3435 12.0974L19.3331 11.9534ZM14.2704 6.5323C13.3636 6.34 12.4061 6.34161 11.5059 6.53752L11.7186 7.51464C12.4793 7.34909 13.2936 7.34739 14.0629 7.51054L14.2704 6.5323ZM11.3183 0.976565L11.4556 1.9671L11.4557 1.96709L11.3183 0.976565ZM1.05391 11.0878L0.0650845 10.9388L0.0650795 10.9388L1.05391 11.0878ZM1.54348 16.9708L2.49593 16.6661L2.49593 16.6661L1.54348 16.9708ZM8.70677 30.7971L7.85237 31.3168L7.85238 31.3168L8.70677 30.7971ZM12.475 36.665L11.7367 37.3395L11.7368 37.3396L12.475 36.665ZM14.9825 34.1932L14.1414 33.6523L14.1414 33.6524L14.9825 34.1932ZM22.3294 21.2689L23.225 21.7137L23.225 21.7137L22.3294 21.2689ZM24.8963 13.553L23.8976 13.5018V13.5018L24.8963 13.553ZM15.3492 1.1285L15.5515 0.149172L15.5514 0.149163L15.3492 1.1285ZM11.1811 -0.0139666C5.49526 0.774075 0.918124 5.2795 0.0650845 10.9388L2.04274 11.2369C2.7629 6.45916 6.64251 2.63419 11.4556 1.9671L11.1811 -0.0139666ZM0.0650795 10.9388C-0.253296 13.0515 -0.0731671 15.1994 0.591036 17.2755L2.49593 16.6661C1.9229 14.875 1.77141 13.0374 2.04275 11.2368L0.0650795 10.9388ZM0.591031 17.2755C0.934982 18.3506 2.1164 20.8118 3.49052 23.464C4.88228 26.1503 6.52803 29.1392 7.85237 31.3168L9.56116 30.2775C8.26834 28.1518 6.64543 25.2059 5.26633 22.544C3.86959 19.8481 2.77795 17.5476 2.49593 16.6661L0.591031 17.2755ZM7.85238 31.3168C8.46376 32.322 9.35367 33.7341 10.1182 34.9247C10.5007 35.5203 10.854 36.0638 11.127 36.4756C11.2632 36.6811 11.3818 36.8573 11.4751 36.9921C11.5487 37.0984 11.6524 37.2472 11.7367 37.3395L13.2133 35.9905C13.2406 36.0205 13.2217 36.0014 13.1196 35.8539C13.0373 35.7349 12.9271 35.5712 12.7939 35.3705C12.5283 34.9698 12.1808 34.4353 11.8011 33.844C11.0413 32.6608 10.1609 31.2636 9.56115 30.2775L7.85238 31.3168ZM11.7368 37.3396C11.8446 37.4575 12.1767 37.8348 12.7044 37.8969C13.2992 37.9668 13.7224 37.6129 13.9375 37.4009C14.1792 37.1626 14.435 36.8226 14.7184 36.4133C15.0107 35.9912 15.3714 35.4372 15.8236 34.7341L14.1414 33.6524C13.6879 34.3575 13.3444 34.8844 13.0742 35.2746C12.7951 35.6776 12.6302 35.8812 12.5334 35.9766C12.41 36.0983 12.5769 35.8681 12.9381 35.9106C13.2321 35.9452 13.3533 36.1437 13.2132 35.9904L11.7368 37.3396ZM15.8236 34.7341C18.8877 29.9693 20.7647 26.6674 23.225 21.7137L21.4338 20.8241C19.0071 25.7101 17.1666 28.948 14.1414 33.6523L15.8236 34.7341ZM23.225 21.7137C24.2447 19.6605 24.8854 18.2732 25.2813 17.0832C25.6883 15.8597 25.8303 14.8649 25.895 13.6043L23.8976 13.5018C23.8394 14.6367 23.7188 15.4442 23.3835 16.4519C23.0371 17.4931 22.4559 18.766 21.4338 20.8241L23.225 21.7137ZM25.895 13.6043C26.2232 7.20909 21.7953 1.43886 15.5515 0.149172L15.1469 2.10783C20.4145 3.19585 24.1757 8.08298 23.8976 13.5018L25.895 13.6043ZM15.5514 0.149163C14.9757 0.030264 14.1404 -0.0431274 13.3557 -0.0727099C12.5737 -0.102189 11.7435 -0.0919334 11.181 -0.0139626L11.4557 1.96709C11.8413 1.91364 12.5314 1.89764 13.2804 1.92587C14.0266 1.954 14.7327 2.02229 15.147 2.10784L15.5514 0.149163Z" fill="black" mask="url(#path-1-inside-1_110_15)"/>
</svg>
